# xmcd
# 
# Track frame offsets:
#     150
#     13349
#     28309
#     41737
#     52989
#     68313
#     84364
#     95785
#     111305
#     126147
#     141414
#     156132
#     173198
#     194319
#     211872
#     220629
#     243212
#     261995
# 
# Disc length: 3750
# 
# Revision: 0
# Processed by: cddbd v1.5.2PL0 Copyright (c) Steve Scherf et al.
# Submitted via: fre:ac v1.0.31
# 
DISCID=010ea412
DTITLE=Gray Bartlett - Private Conversations
DYEAR=2016
DGENRE=Country
TTITLE0=Apache
TTITLE1=Cinema Paradiso
TTITLE2=Stay With Me
TTITLE3=Cavatina
TTITLE4=Somewhere In My Broken Heart
TTITLE5=The Sad Princess
TTITLE6=I Miss You So My Friend
TTITLE7=Morning Has Broken
TTITLE8=The Mission
TTITLE9=Used To You
TTITLE10=A Time For Us
TTITLE11=Only Time
TTITLE12=Fields Of Gold
TTITLE13=Listen To The Music
TTITLE14=Yellow Rose Of Texas
TTITLE15=Still Got The Blues
TTITLE16=Polite Conversations
TTITLE17=Rescue Me
EXTD=
EXTT0=
EXTT1=
EXTT2=
EXTT3=
EXTT4=
EXTT5=
EXTT6=
EXTT7=
EXTT8=
EXTT9=
EXTT10=
EXTT11=
EXTT12=
EXTT13=
EXTT14=
EXTT15=
EXTT16=
EXTT17=
PLAYORDER=
